# xmcd
#
# Track frame offsets: 
#        150
#        12793
#        33564
#        44788
#        62438
#        72798
#        83270
#        121023
#        136002
#        151880
#        166407
#        179275
#        196178
#        208647
#        226806
#
# Disc length: 3164 seconds
#
# Revision: 5
# Processed by: cddbd v1.5.2PL0 Copyright (c) Steve Scherf et al.
# Submitted via: ExactAudioCopy v1.0b3
#
DISCID=b30c5a0f
DTITLE=Various Artist - Q 242 2006.09 - Take It Easy - 15 Soft Rock A
DTITLE=nthems
DYEAR=2006
DGENRE=Magazine compilation
TTITLE0=Sailor - A glass of champagne
TTITLE1=Heaven 17 - (Don't fear) The reaper
TTITLE2=Jellyfish - Now she knows she's wrong
TTITLE3=Redd Kross - Yesterday once more
TTITLE4=Def Leppard - Don't believe a word
TTITLE5=Todd Rundgren - A dream goes on forever
TTITLE6=The Moody Blues - The afternoon
TTITLE7=Electric Light Orchestra - Queen of the hours
TTITLE8=Larrikin Love - A horse with no name (Specially recorded for Q
TTITLE8=Magazine)
TTITLE9=Chris Difford - Up the junction
TTITLE10=The Korgis - Everybody's got to learn sometime
TTITLE11=James Morrison - It's too late
TTITLE12=Clifford T Ward - Wherewithal
TTITLE13=Psapp - Year of the cat (Specially recorded for Q Magazine)
TTITLE14=Brian Protheroe - Fly Now
EXTD=Q Magazine promotional CD for September 2006 YEAR: 2006
EXTT0=
EXTT1=
EXTT2=
EXTT3=
EXTT4=
EXTT5=
EXTT6=
EXTT7=
EXTT8=
EXTT9=
EXTT10=
EXTT11=
EXTT12=
EXTT13=
EXTT14=
PLAYORDER=
